<svg width="100" height="100" viewBox="0 0 100 100" fill="none" xmlns="http://www.w3.org/2000/svg">
<rect width="100" height="100" rx="50" fill="white"/>
<rect x="13.5" y="13.5" width="73" height="73" rx="36.5" stroke="#6ACAED"/>
<path d="M66.4958 35.5043C66.4958 34.3998 65.6003 33.5043 64.4958 33.5043L46.4958 33.5044C45.3912 33.5043 44.4958 34.3998 44.4958 35.5044C44.4958 36.6089 45.3912 37.5043 46.4958 37.5044L62.4958 37.5043L62.4958 53.5043C62.4958 54.6089 63.3912 55.5043 64.4958 55.5043C65.6003 55.5044 66.4958 54.6089 66.4958 53.5044L66.4958 35.5043ZM36.9186 65.9099L65.91 36.9186L63.0816 34.0901L34.0902 63.0815L36.9186 65.9099Z" fill="#45BDE8"/>
</svg>
